<?xml version="1.0" encoding="UTF-8" standalone="no"?>
<!-- Generator: Adobe Illustrator 18.1.1, SVG Export Plug-In . SVG Version: 6.00 Build 0)  -->

<svg
   xmlns:sketch="http://www.bohemiancoding.com/sketch/ns"
   xmlns:dc="http://purl.org/dc/elements/1.1/"
   xmlns:cc="http://creativecommons.org/ns#"
   xmlns:rdf="http://www.w3.org/1999/02/22-rdf-syntax-ns#"
   xmlns:svg="http://www.w3.org/2000/svg"
   xmlns="http://www.w3.org/2000/svg"
   xmlns:sodipodi="http://sodipodi.sourceforge.net/DTD/sodipodi-0.dtd"
   xmlns:inkscape="http://www.inkscape.org/namespaces/inkscape"
   version="1.1"
   id="レイヤー_1"
   x="0px"
   y="0px"
   viewBox="-282 407.9 30 26"
   enable-background="new -282 407.9 30 26"
   xml:space="preserve"
   inkscape:version="0.48.5 r10040"
   width="100%"
   height="100%"
   sodipodi:docname="icon_heart.svg"><metadata
     id="metadata13"><rdf:RDF><cc:Work
         rdf:about=""><dc:format>image/svg+xml</dc:format><dc:type
           rdf:resource="http://purl.org/dc/dcmitype/StillImage" /><dc:title></dc:title></cc:Work></rdf:RDF></metadata><defs
     id="defs11" /><sodipodi:namedview
     pagecolor="#ffffff"
     bordercolor="#666666"
     borderopacity="1"
     objecttolerance="10"
     gridtolerance="10"
     guidetolerance="10"
     inkscape:pageopacity="0"
     inkscape:pageshadow="2"
     inkscape:window-width="946"
     inkscape:window-height="677"
     id="namedview9"
     showgrid="false"
     inkscape:zoom="17.409255"
     inkscape:cx="15"
     inkscape:cy="13"
     inkscape:window-x="65"
     inkscape:window-y="27"
     inkscape:window-maximized="0"
     inkscape:current-layer="レイヤー_1" /><g
     id="Page-1"
     sketch:type="MSPage"
     style="fill:#ff0000"><g
       id="PROTOPAGE"
       transform="translate(-1195.000000, -137.000000)"
       sketch:type="MSArtboardGroup"
       style="fill:#ff0000"><g
         enable-background="new    "
         id="g5"
         style="fill:#ff0000"><path
           fill="#D7D7D7"
           d="M935.7,545.5c1.5,0,2.9,0.4,4,1.2c1.1,0.8,2,1.8,2.5,3c0.5,1.2,0.7,2.5,0.7,3.8c0,1.3-0.3,2.5-0.9,3.5     c-1,1.9-2.7,3.9-5.1,6.1s-4.4,3.9-6.3,5.2l-2.7,1.9c-0.3-0.2-0.7-0.4-1.2-0.8c-0.5-0.3-1.4-1-2.8-2c-1.4-1-2.6-2-3.8-3     c-1.1-1-2.3-2.2-3.6-3.5c-1.2-1.4-2.2-2.6-2.8-3.8c-0.6-1-0.9-2.2-0.9-3.5c0-1.3,0.2-2.6,0.7-3.8c0.5-1.2,1.3-2.2,2.4-3     c1.1-0.8,2.5-1.2,4.1-1.2c1.4,0,2.6,0.3,3.7,0.8c1.1,0.5,1.9,1.2,2.4,2c0.5,0.8,0.9,1.4,1.2,1.9c0.2,0.5,0.4,0.9,0.5,1.3     c0.1-0.4,0.3-0.8,0.5-1.3c0.2-0.5,0.6-1.1,1.2-1.9c0.5-0.8,1.4-1.5,2.4-2C933.1,545.8,934.4,545.5,935.7,545.5z"
           id="path7"
           style="fill:#ff0000" /></g></g></g></svg>